<mxfile host="app.diagrams.net" modified="2024-05-03T09:47:44.735Z" agent="Mozilla/5.0 (Windows NT 10.0; Win64; x64; rv:109.0) Gecko/20100101 Firefox/115.0" etag="YRLNFxOIOQsxRotXzJPD" version="24.3.1" type="github">
  <diagram name="Seite-1" id="vcqKMgv1KcrrD5jzxx-M">
    <mxGraphModel dx="1434" dy="782" grid="1" gridSize="10" guides="1" tooltips="1" connect="1" arrows="1" fold="1" page="1" pageScale="1" pageWidth="827" pageHeight="1169" math="0" shadow="0">
      <root>
        <mxCell id="0" />
        <mxCell id="1" parent="0" />
        <mxCell id="1mA3XyTXjgU-cX_Zq_9W-1" value="" style="rounded=0;whiteSpace=wrap;html=1;" vertex="1" parent="1">
          <mxGeometry x="120" y="140" width="310" height="230" as="geometry" />
        </mxCell>
        <mxCell id="1mA3XyTXjgU-cX_Zq_9W-2" value="&lt;div&gt;&lt;b&gt;&lt;font style=&quot;font-size: 27px;&quot;&gt;Gitlab&lt;/font&gt;&lt;/b&gt;&lt;/div&gt;" style="text;html=1;align=center;verticalAlign=middle;whiteSpace=wrap;rounded=0;" vertex="1" parent="1">
          <mxGeometry x="130" y="170" width="130" height="50" as="geometry" />
        </mxCell>
        <mxCell id="1mA3XyTXjgU-cX_Zq_9W-3" value="" style="rounded=0;whiteSpace=wrap;html=1;" vertex="1" parent="1">
          <mxGeometry x="140" y="220" width="270" height="130" as="geometry" />
        </mxCell>
        <mxCell id="1mA3XyTXjgU-cX_Zq_9W-4" value="&lt;font style=&quot;font-size: 14px;&quot;&gt;Repository kVASyDocs&lt;/font&gt;" style="text;html=1;align=center;verticalAlign=middle;whiteSpace=wrap;rounded=0;" vertex="1" parent="1">
          <mxGeometry x="150" y="230" width="160" height="40" as="geometry" />
        </mxCell>
        <mxCell id="1mA3XyTXjgU-cX_Zq_9W-5" value="" style="rounded=0;whiteSpace=wrap;html=1;" vertex="1" parent="1">
          <mxGeometry x="160" y="270" width="240" height="70" as="geometry" />
        </mxCell>
        <mxCell id="1mA3XyTXjgU-cX_Zq_9W-6" value="&lt;div align=&quot;left&quot;&gt;Dokumentation&lt;/div&gt;" style="text;html=1;align=left;verticalAlign=middle;whiteSpace=wrap;rounded=0;" vertex="1" parent="1">
          <mxGeometry x="170" y="280" width="240" height="30" as="geometry" />
        </mxCell>
        <mxCell id="1mA3XyTXjgU-cX_Zq_9W-7" value="&lt;div align=&quot;left&quot;&gt;Bilder&lt;/div&gt;" style="text;html=1;align=left;verticalAlign=middle;whiteSpace=wrap;rounded=0;" vertex="1" parent="1">
          <mxGeometry x="170" y="310" width="240" height="30" as="geometry" />
        </mxCell>
        <mxCell id="1mA3XyTXjgU-cX_Zq_9W-9" value="" style="image;aspect=fixed;perimeter=ellipsePerimeter;html=1;align=center;shadow=0;dashed=0;spacingTop=3;image=img/lib/active_directory/internet_cloud.svg;" vertex="1" parent="1">
          <mxGeometry x="334" y="150" width="79.37" height="50" as="geometry" />
        </mxCell>
        <mxCell id="1mA3XyTXjgU-cX_Zq_9W-10" value="" style="rounded=0;whiteSpace=wrap;html=1;" vertex="1" parent="1">
          <mxGeometry x="120" y="560" width="310" height="230" as="geometry" />
        </mxCell>
        <mxCell id="1mA3XyTXjgU-cX_Zq_9W-11" value="&lt;font style=&quot;font-size: 27px;&quot;&gt;&lt;b&gt;&lt;font style=&quot;font-size: 27px;&quot;&gt;Lokal&lt;/font&gt;&lt;/b&gt;&lt;/font&gt;" style="text;html=1;align=center;verticalAlign=middle;whiteSpace=wrap;rounded=0;" vertex="1" parent="1">
          <mxGeometry x="130" y="590" width="130" height="50" as="geometry" />
        </mxCell>
        <mxCell id="1mA3XyTXjgU-cX_Zq_9W-12" value="" style="rounded=0;whiteSpace=wrap;html=1;" vertex="1" parent="1">
          <mxGeometry x="140" y="640" width="270" height="130" as="geometry" />
        </mxCell>
        <mxCell id="1mA3XyTXjgU-cX_Zq_9W-13" value="&lt;font style=&quot;font-size: 14px;&quot;&gt;Repository kVASyDocs&lt;/font&gt;" style="text;html=1;align=center;verticalAlign=middle;whiteSpace=wrap;rounded=0;" vertex="1" parent="1">
          <mxGeometry x="150" y="650" width="160" height="40" as="geometry" />
        </mxCell>
        <mxCell id="1mA3XyTXjgU-cX_Zq_9W-14" value="" style="rounded=0;whiteSpace=wrap;html=1;" vertex="1" parent="1">
          <mxGeometry x="160" y="690" width="240" height="70" as="geometry" />
        </mxCell>
        <mxCell id="1mA3XyTXjgU-cX_Zq_9W-15" value="&lt;div align=&quot;left&quot;&gt;Dokumentation&lt;/div&gt;" style="text;html=1;align=left;verticalAlign=middle;whiteSpace=wrap;rounded=0;" vertex="1" parent="1">
          <mxGeometry x="170" y="700" width="240" height="30" as="geometry" />
        </mxCell>
        <mxCell id="1mA3XyTXjgU-cX_Zq_9W-16" value="&lt;div align=&quot;left&quot;&gt;Bilder&lt;/div&gt;" style="text;html=1;align=left;verticalAlign=middle;whiteSpace=wrap;rounded=0;" vertex="1" parent="1">
          <mxGeometry x="170" y="730" width="240" height="30" as="geometry" />
        </mxCell>
        <mxCell id="1mA3XyTXjgU-cX_Zq_9W-8" value="" style="shape=mxgraph.cisco.computers_and_peripherals.pc;html=1;pointerEvents=1;dashed=0;fillColor=#036897;strokeColor=#ffffff;strokeWidth=2;verticalLabelPosition=bottom;verticalAlign=top;align=center;outlineConnect=0;" vertex="1" parent="1">
          <mxGeometry x="350.37" y="580" width="58" height="50" as="geometry" />
        </mxCell>
        <mxCell id="1mA3XyTXjgU-cX_Zq_9W-19" value="" style="endArrow=classic;html=1;rounded=0;exitX=0.25;exitY=1;exitDx=0;exitDy=0;entryX=0.25;entryY=0;entryDx=0;entryDy=0;" edge="1" parent="1" source="1mA3XyTXjgU-cX_Zq_9W-1" target="1mA3XyTXjgU-cX_Zq_9W-10">
          <mxGeometry width="50" height="50" relative="1" as="geometry">
            <mxPoint x="390" y="510" as="sourcePoint" />
            <mxPoint x="440" y="460" as="targetPoint" />
          </mxGeometry>
        </mxCell>
      </root>
    </mxGraphModel>
  </diagram>
</mxfile>
